<svg width="20" height="20" viewBox="0 0 20 20" fill="none" xmlns="http://www.w3.org/2000/svg">
<path d="M13.9362 0.000488281C13.9362 0.298656 13.9656 0.589375 14.0173 0.872559C14.2598 2.18255 15.0374 3.30678 16.1149 4.00928C16.8649 4.49844 17.7604 4.78467 18.7204 4.78467V8.22217C16.9381 8.22207 15.2854 7.65136 13.9372 6.68311V13.6704C13.9372 17.1604 11.0982 19.9995 7.60907 19.9995C6.26078 19.9995 5.00959 19.5747 3.98212 18.853C2.35047 17.7072 1.28094 15.8112 1.28094 13.6704C1.2812 10.1806 4.1202 7.34131 7.61005 7.34131C7.90004 7.34131 8.18343 7.36631 8.46259 7.40381V10.9136C8.19259 10.8294 7.90754 10.7798 7.61005 10.7798C6.01687 10.7798 4.72065 12.0765 4.7204 13.6704C4.7204 14.7804 5.3502 15.7448 6.2702 16.229C6.67102 16.4398 7.12688 16.561 7.61102 16.561C9.16761 16.5609 10.4375 15.3221 10.4958 13.7788L10.4987 0.000488281H13.9362Z" fill="#7B7F8E"/>
</svg>
