<svg width="20" height="20" viewBox="0 0 20 20" fill="none" xmlns="http://www.w3.org/2000/svg">
<path d="M15.9022 4.16613C16.5535 4.15692 16.71 4.69765 16.6571 5.25305C16.45 7.44826 15.5496 12.7771 15.0927 15.2364C14.8993 16.278 14.5176 16.6267 14.1493 16.6603C13.3473 16.7342 12.7385 16.1268 11.9618 15.6154C10.7466 14.8145 10.0593 14.3156 8.87978 13.5333C7.51634 12.6296 8.3999 12.1326 9.17666 11.3214C9.38153 11.1074 12.9116 7.87817 12.9823 7.5841C12.9904 7.54707 12.9995 7.41074 12.9179 7.33898C12.8362 7.26723 12.7179 7.29099 12.6327 7.31066C12.5107 7.33844 10.5694 8.62891 6.80751 11.1818C6.25645 11.5624 5.75703 11.7475 5.30947 11.7384C4.81694 11.728 3.86842 11.4581 3.16298 11.2267C2.29905 10.9444 1.61055 10.7942 1.66982 10.3155C1.70089 10.0656 2.04351 9.80951 2.69716 9.54797C6.72237 7.78444 9.4069 6.62114 10.7499 6.05871C14.5855 4.45476 15.3821 4.17539 15.9022 4.16613Z" fill="#7B7F8E"/>
</svg>
