<svg width="12" height="12" viewBox="0 0 12 12" fill="none" xmlns="http://www.w3.org/2000/svg">
<path d="M4.66667 0V1.33333H7.33333V0H8.66667V1.33333H11.3333C11.7015 1.33333 12 1.63181 12 2V11.3333C12 11.7015 11.7015 12 11.3333 12H0.666667C0.298477 12 0 11.7015 0 11.3333V2C0 1.63181 0.298477 1.33333 0.666667 1.33333H3.33333V0H4.66667ZM10.666 6.66667H1.33267L1.33333 10.6667H10.6667L10.666 6.66667ZM8.66667 8C9.03486 8 9.33333 8.29848 9.33333 8.66667C9.33333 9.03486 9.03486 9.33333 8.66667 9.33333C8.29848 9.33333 8 9.03486 8 8.66667C8 8.29848 8.29848 8 8.66667 8ZM3.33333 2.66667H1.33333L1.33267 5.33333H10.666L10.6667 2.66667H8.66667V4H7.33333V2.66667H4.66667V4H3.33333V2.66667Z" fill="white"/>
</svg>
