<svg width="24" height="25" viewBox="0 0 24 25" fill="none" xmlns="http://www.w3.org/2000/svg">
<path fill-rule="evenodd" clip-rule="evenodd" d="M12 7.5C9.79086 7.5 8 9.29086 8 11.5C8 13.7091 9.79086 15.5 12 15.5C14.2091 15.5 16 13.7091 16 11.5C16 9.29086 14.2091 7.5 12 7.5ZM10 11.5C10 10.3954 10.8954 9.5 12 9.5C13.1046 9.5 14 10.3954 14 11.5C14 12.6046 13.1046 13.5 12 13.5C10.8954 13.5 10 12.6046 10 11.5Z" fill="#2B384C"/>
<path fill-rule="evenodd" clip-rule="evenodd" d="M12 2.5C7.02944 2.5 3 6.52944 3 11.5C3 14.8868 4.96368 17.7529 6.91789 19.7071C7.90756 20.6968 8.93174 21.4907 9.78487 22.0427C10.2107 22.3182 10.6063 22.5415 10.9442 22.7002C11.1127 22.7792 11.2794 22.8482 11.437 22.8993C11.5772 22.9447 11.7809 23 12 23C12.2191 23 12.4228 22.9447 12.563 22.8993C12.7206 22.8482 12.8873 22.7792 13.0558 22.7002C13.3937 22.5415 13.7893 22.3182 14.2151 22.0427C15.0683 21.4907 16.0924 20.6968 17.0821 19.7071C19.0363 17.7529 21 14.8868 21 11.5C21 6.52944 16.9706 2.5 12 2.5ZM5 11.5C5 7.63401 8.13401 4.5 12 4.5C15.866 4.5 19 7.63401 19 11.5C19 14.1132 17.4637 16.4971 15.6679 18.2929C14.7826 19.1782 13.8692 19.8843 13.1286 20.3636C12.7576 20.6036 12.4422 20.7788 12.206 20.8897C12.1207 20.9297 12.0521 20.9583 12 20.9778C11.9479 20.9583 11.8794 20.9297 11.794 20.8897C11.5578 20.7788 11.2424 20.6036 10.8714 20.3636C10.1308 19.8843 9.21744 19.1782 8.33211 18.2929C6.53632 16.4971 5 14.1132 5 11.5ZM11.9067 21.0081L11.9112 21.0071C11.9082 21.0078 11.9067 21.0081 11.9067 21.0081ZM12.0933 21.0081L12.0888 21.0071L12.091 21.0076L12.0933 21.0081Z" fill="#2B384C"/>
</svg>
