<svg width="37" height="37" viewBox="0 0 37 37" fill="none" xmlns="http://www.w3.org/2000/svg">
<path d="M21.6126 7.41534C22.9862 6.12496 25.1338 5.80892 26.8142 6.65221L32.0112 9.25146H37V6.16813H32.7388L28.194 3.89417C25.382 2.48663 21.7915 3.00925 19.4975 5.17067L18.5447 6.06792L17.4655 5.08434C16.0487 3.79396 14.2142 3.08325 12.2393 3.08325C11.0507 3.08325 9.86512 3.36384 8.806 3.89263L4.25962 6.16659H0V9.24992H4.98883L10.1873 6.65067C11.7629 5.85825 13.9768 6.07254 15.3889 7.36292L16.2939 8.18771L12.2146 12.0295C10.5604 13.6822 10.2968 16.2953 11.601 18.1006C12.4027 19.2153 13.7578 20.0416 15.3689 20.0416C16.5914 20.0416 17.7646 19.5606 18.6125 18.7111L20.1635 17.2265L29.9423 24.5602L18.5 33.1165L5.13837 23.1249H0V26.2083H4.11163L18.5 36.9675L32.8884 26.2083H37V23.1249H33.1659L22.4205 15.0666L25.0228 12.5753L22.8907 10.3476L16.4573 16.5065C16.1366 16.8272 15.7003 16.9922 15.2425 16.9536C14.783 16.9166 14.3791 16.6838 14.1032 16.2984C13.6807 15.7126 13.8102 14.7953 14.3622 14.2418L21.6126 7.41534Z" fill="#1C9BE9"/>
</svg>
