<svg width="20" height="20" viewBox="0 0 20 20" fill="none" xmlns="http://www.w3.org/2000/svg">
<path d="M9.99969 2.95459C9.99969 2.95459 16.2539 2.9555 17.8132 3.37549C18.6739 3.60713 19.3517 4.28906 19.5817 5.15479C20.0001 6.72479 19.9997 10.0005 19.9997 10.0005C19.9997 10.0442 19.9974 13.2858 19.5827 14.8452C19.3518 15.7118 18.6741 16.3938 17.8141 16.6255C16.2539 17.0454 9.99969 17.0454 9.99969 17.0454C9.94808 17.0454 3.7389 17.0437 2.18622 16.6255C1.32562 16.3938 0.648671 15.7108 0.41864 14.8452C0.00313332 13.2858 -0.000286208 10.0442 -0.000305176 10.0005C-0.000305176 10.0005 0.000306835 6.72479 0.41864 5.15479C0.648719 4.28827 1.32632 3.60713 2.18622 3.37549C3.74011 2.9573 9.94809 2.9546 9.99969 2.95459ZM7.95477 12.9741L13.1813 10.0005L7.95477 7.02588V12.9741Z" fill="#7B7F8E"/>
</svg>
