<svg width="20" height="20" viewBox="0 0 20 20" fill="none" xmlns="http://www.w3.org/2000/svg">
<path d="M10.5447 1.68482C12.562 1.81704 14.4627 2.67812 15.8923 4.10767C17.3219 5.53725 18.1829 7.43792 18.3152 9.45533C18.4473 11.4726 17.8418 13.4696 16.6111 15.0735C15.3803 16.6772 13.6084 17.7787 11.6257 18.1731C9.8166 18.5329 7.87682 18.4396 6.15795 17.5647L2.32299 18.7151C2.02935 18.8032 1.71066 18.7229 1.49389 18.5061C1.27715 18.2893 1.19682 17.9706 1.2849 17.677L2.43529 13.842C1.56047 12.1232 1.46704 10.1834 1.82689 8.37427C2.22132 6.39139 3.32353 4.61967 4.92748 3.38892C6.53129 2.15834 8.52748 1.5527 10.5447 1.68482ZM10.4363 3.3479C8.82243 3.24213 7.22525 3.72669 5.94213 4.71118C4.65897 5.69579 3.7772 7.11316 3.46166 8.69947C3.13441 10.3447 3.27317 11.9784 4.05541 13.3333L4.2351 13.6448L3.32592 16.6741L6.35521 15.7649L6.66674 15.9446C8.0216 16.7268 9.65536 16.8656 11.3005 16.5383C12.8867 16.2228 14.3042 15.3418 15.2888 14.0588C16.2734 12.7757 16.7579 11.1777 16.6521 9.56372C16.5463 7.95012 15.8579 6.42992 14.7146 5.28638C13.571 4.14276 12.0501 3.45373 10.4363 3.3479ZM7.08373 5.83326C7.39924 5.83339 7.68774 6.01198 7.82885 6.29419L8.66185 7.96021C8.82227 8.28103 8.75924 8.66947 8.5056 8.9231L8.07494 9.35376C8.10493 9.41259 8.13905 9.47579 8.1765 9.54322C8.40703 9.95816 8.77954 10.5173 9.33959 11.0774C9.86269 11.6005 10.3715 11.8497 10.7322 11.97C10.8037 11.9938 10.87 12.0127 10.9294 12.0276L11.5681 11.3176C11.8263 11.0307 12.2478 10.959 12.5867 11.1438L13.7322 11.7688C13.977 11.9024 14.1394 12.1492 14.1638 12.427C14.1882 12.7048 14.0719 12.9764 13.8542 13.1506L13.8523 13.1526L13.8494 13.1545L13.8415 13.1604L13.8171 13.179C13.7974 13.1941 13.7702 13.2154 13.7371 13.2395C13.6714 13.2873 13.578 13.352 13.4704 13.4182C13.3651 13.483 13.2313 13.5581 13.0857 13.6194C12.9535 13.675 12.7414 13.7502 12.4997 13.7502C12.168 13.7669 11.9921 13.7733 11.6667 13.7668C11.5562 13.7647 11.4185 13.7613 11.2624 13.7502H11.2331L11.2087 13.7493C11.1901 13.7487 11.1665 13.7472 11.1384 13.7454C11.0823 13.7416 11.0079 13.7348 10.9177 13.7219C10.7372 13.6961 10.4918 13.6467 10.2048 13.551C9.62807 13.3587 8.88747 12.9827 8.16088 12.2561C7.47098 11.5662 7.00979 10.8753 6.71947 10.3528C6.57418 10.0913 6.47067 9.87021 6.40209 9.71021C6.36785 9.63033 6.34186 9.56518 6.32396 9.51783L6.3142 9.49048C6.30103 9.46319 6.28276 9.4253 6.26146 9.37915C6.21819 9.2854 6.16013 9.15415 6.10131 9.00708C6.0432 8.8618 5.97997 8.69028 5.93041 8.51685C5.88444 8.35596 5.83373 8.13688 5.83373 7.91626C5.8338 7.6958 5.88447 7.47744 5.93041 7.31665C5.97996 7.14324 6.0432 6.9717 6.10131 6.82642C6.16011 6.67941 6.2182 6.5481 6.26146 6.45435C6.28325 6.40716 6.30194 6.36848 6.31518 6.34107L6.3308 6.30884L6.33568 6.29908L6.33666 6.29615L6.33764 6.29517C6.4788 6.01285 6.76809 5.83326 7.08373 5.83326Z" fill="#7B7F8E"/>
</svg>
