<svg width="20" height="20" viewBox="0 0 20 20" fill="none" xmlns="http://www.w3.org/2000/svg">
<path d="M11.0349 2.98961C12.6873 1.43545 15.2863 1.51583 16.8405 3.16832C17.7597 2.98749 18.6411 2.64973 19.447 2.17223C19.1403 3.12223 18.4989 3.92843 17.6423 4.44176C18.4564 4.34427 19.2506 4.1269 19.9997 3.79528C19.4489 4.61931 18.756 5.33852 17.9528 5.9193C17.9645 6.0951 17.9645 6.27211 17.9645 6.44957C17.9645 11.8721 13.8354 18.1244 6.28876 18.1244V18.1215C4.05974 18.1247 1.87624 17.4867 -0.000305176 16.2826C0.32372 16.3217 0.649734 16.3403 0.976257 16.3412C2.82459 16.3428 4.62044 15.7231 6.07294 14.5814C4.31722 14.5481 2.77655 13.4033 2.23895 11.7318C2.85388 11.8501 3.48739 11.8256 4.09149 11.6615C2.17663 11.2748 0.800555 9.59224 0.800476 7.63903V7.58727C1.37121 7.90547 2.00959 8.08178 2.66278 8.10094C0.859592 6.89687 0.30248 4.49834 1.3913 2.6234C3.47462 5.18671 6.54919 6.74467 9.84833 6.91051C9.51751 5.48554 9.96989 3.99211 11.0349 2.98961Z" fill="#7B7F8E"/>
</svg>
