<svg width="20" height="20" viewBox="0 0 20 20" fill="none" xmlns="http://www.w3.org/2000/svg">
<path d="M12.2028 1.6665C13.1056 1.6665 13.8338 1.66717 14.4235 1.71533C15.0309 1.76495 15.5647 1.86916 16.0583 2.12061C16.8423 2.52008 17.4801 3.15789 17.8796 3.94189C18.131 4.4354 18.2352 4.96939 18.2849 5.57666C18.333 6.16641 18.3337 6.89459 18.3337 7.79736V12.2026C18.3337 13.1056 18.333 13.8345 18.2849 14.4243C18.2352 15.0314 18.1309 15.5647 17.8796 16.0581C17.4801 16.8421 16.8423 17.4799 16.0583 17.8794C15.5647 18.1309 15.0309 18.236 14.4235 18.2856C13.8338 18.3338 13.1056 18.3335 12.2028 18.3335H7.79755C6.89449 18.3335 6.16572 18.3338 5.57587 18.2856C4.96874 18.236 4.43549 18.1307 3.94208 17.8794C3.15807 17.4799 2.52026 16.8421 2.12079 16.0581C1.86943 15.5647 1.76417 15.0314 1.71454 14.4243C1.66635 13.8345 1.66668 13.1057 1.66669 12.2026V7.79736C1.66668 6.89462 1.66639 6.1664 1.71454 5.57666C1.76416 4.96934 1.86935 4.43543 2.12079 3.94189C2.52026 3.15789 3.15807 2.52008 3.94208 2.12061C4.43546 1.8693 4.96879 1.76496 5.57587 1.71533C6.16574 1.66714 6.89445 1.6665 7.79755 1.6665H12.2028ZM7.83368 3.3335C6.88651 3.3335 6.22564 3.33447 5.71161 3.37646C5.2075 3.41767 4.91736 3.49416 4.69794 3.60596C4.22771 3.84565 3.84576 4.22845 3.60614 4.69873C3.49439 4.91811 3.41688 5.20751 3.37567 5.71143C3.33367 6.22546 3.33368 6.88632 3.33368 7.8335V12.1665C3.33368 13.1137 3.33367 13.7745 3.37567 14.2886C3.41687 14.7925 3.4944 15.0819 3.60614 15.3013C3.84575 15.7715 4.22773 16.1543 4.69794 16.394C4.91737 16.5058 5.20745 16.5833 5.71161 16.6245C6.22564 16.6665 6.88651 16.6665 7.83368 16.6665H12.1667C13.1136 16.6665 13.7738 16.6665 14.2878 16.6245C14.792 16.5833 15.082 16.5058 15.3015 16.394C15.7719 16.1544 16.1545 15.7717 16.3942 15.3013C16.5059 15.0819 16.5825 14.7924 16.6237 14.2886C16.6657 13.7745 16.6667 13.1137 16.6667 12.1665V7.8335C16.6667 6.88632 16.6657 6.22546 16.6237 5.71143C16.5825 5.20764 16.5059 4.91809 16.3942 4.69873C16.1545 4.22833 15.7719 3.84564 15.3015 3.60596C15.082 3.49417 14.792 3.41766 14.2878 3.37646C13.7738 3.33449 13.1137 3.3335 12.1667 3.3335H7.83368ZM9.9997 5.8335C12.3009 5.8335 14.1667 7.6993 14.1667 10.0005C14.1664 12.3015 12.3007 14.1665 9.9997 14.1665C7.69881 14.1663 5.83392 12.3014 5.83368 10.0005C5.83368 7.69941 7.69866 5.83367 9.9997 5.8335ZM9.9997 7.50049C8.61913 7.50066 7.4997 8.61988 7.4997 10.0005C7.49994 11.3809 8.61928 12.5003 9.9997 12.5005C11.3803 12.5005 12.4995 11.381 12.4997 10.0005C12.4997 8.61978 11.3804 7.50049 9.9997 7.50049ZM14.1667 5.00049C14.6269 5.00049 14.9997 5.37326 14.9997 5.8335C14.9996 6.29368 14.6269 6.6665 14.1667 6.6665C13.7065 6.6665 13.3337 6.29368 13.3337 5.8335C13.3337 5.37326 13.7065 5.00049 14.1667 5.00049Z" fill="#7B7F8E"/>
</svg>
