<svg width="20" height="20" viewBox="0 0 20 20" fill="none" xmlns="http://www.w3.org/2000/svg">
<path d="M9.99963 1.6665C11.0878 1.6665 12.3007 1.76931 13.4205 2.03369C14.524 2.29422 15.6268 2.73238 16.4059 3.46826C17.1898 4.20875 17.6611 5.26339 17.941 6.3208C18.2242 7.3907 18.3336 8.54737 18.3336 9.5835C18.3336 10.6196 18.2242 11.7762 17.941 12.8462C17.6612 13.9036 17.1898 14.9582 16.4059 15.6987C15.6267 16.4346 14.524 16.8737 13.4205 17.1343C12.3008 17.3986 11.0879 17.5008 9.99963 17.5005C9.67347 17.5004 9.33728 17.491 8.9967 17.4712L6.32483 19.4233C6.07151 19.6083 5.73535 19.6347 5.45569 19.4927C5.17628 19.3506 4.9998 19.0639 4.99963 18.7505V16.6099C4.48043 16.3755 3.99581 16.0779 3.59436 15.6987C2.81031 14.9582 2.33911 13.9037 2.0592 12.8462C1.77603 11.7762 1.66663 10.6196 1.66663 9.5835C1.66663 8.54735 1.77603 7.39073 2.0592 6.3208C2.33913 5.26331 2.81036 4.20876 3.59436 3.46826C4.37349 2.73238 5.47626 2.29422 6.57971 2.03369C7.6993 1.76939 8.91164 1.66652 9.99963 1.6665ZM9.99963 3.3335C9.00461 3.33352 7.92593 3.42831 6.96252 3.65576C5.98265 3.88712 5.20976 4.23544 4.73889 4.68018C4.273 5.12025 3.91142 5.83675 3.67053 6.74658C3.43295 7.6441 3.33362 8.65207 3.33362 9.5835C3.33363 10.5149 3.43297 11.5229 3.67053 12.4204C3.91141 13.3303 4.273 14.0468 4.73889 14.4868C5.05802 14.7882 5.52211 15.0512 6.11389 15.2632C6.44519 15.3818 6.66663 15.6964 6.66663 16.0483V17.1089L8.25842 15.9458C8.41882 15.8287 8.61607 15.7733 8.81409 15.7886C9.21589 15.8195 9.61571 15.8334 10.0006 15.8335C10.9955 15.8338 12.0744 15.7397 13.0377 15.5122C14.0175 15.2809 14.7904 14.9316 15.2614 14.4868C15.7272 14.0467 16.0889 13.3302 16.3297 12.4204C16.5673 11.5229 16.6666 10.5149 16.6666 9.5835C16.6666 8.65205 16.5673 7.6441 16.3297 6.74658C16.0889 5.83682 15.7272 5.12028 15.2614 4.68018C14.7905 4.23547 14.0175 3.88712 13.0377 3.65576C12.0742 3.42826 10.9948 3.3335 9.99963 3.3335ZM6.58459 7.92041C6.83288 7.89586 7.079 7.98431 7.25549 8.16064L8.08948 8.99365C8.24576 9.14993 8.33362 9.36248 8.33362 9.5835C8.33359 9.80435 8.24557 10.0161 8.08948 10.1724L7.73401 10.5278C7.9087 10.8027 8.1647 11.1528 8.50549 11.4937C8.84652 11.8347 9.19727 12.0914 9.47229 12.2661L9.82776 11.9106C9.98401 11.7545 10.1957 11.6665 10.4166 11.6665C10.6375 11.6665 10.8492 11.7545 11.0055 11.9106L11.8395 12.7437C12.016 12.9202 12.1043 13.1671 12.0797 13.4155C12.0551 13.6639 11.9202 13.8884 11.7125 14.0269L11.7047 14.0317L11.6959 14.0376L11.6871 14.0425L11.6754 14.0503C11.6604 14.0594 11.6423 14.0693 11.6217 14.0806C11.5806 14.103 11.5285 14.1292 11.4655 14.1558C11.339 14.2091 11.1685 14.2654 10.9576 14.2993C10.5284 14.3685 9.96528 14.3414 9.30237 14.0698L9.29065 14.0649L9.28284 14.061H9.28088L9.27502 14.0581L9.26135 14.0522C9.25106 14.0475 9.23785 14.0406 9.22131 14.0327C9.1881 14.0169 9.14237 13.9952 9.08655 13.9663C8.97509 13.9087 8.82145 13.824 8.64026 13.7114C8.27935 13.4871 7.8001 13.1447 7.32776 12.6724C6.8554 12.2 6.51302 11.7208 6.2887 11.3599C6.17609 11.1787 6.09147 11.0251 6.03381 10.9136C6.00497 10.8578 5.98321 10.812 5.96741 10.7788C5.95956 10.7623 5.95258 10.7491 5.94788 10.7388L5.94202 10.7251L5.93909 10.7192V10.7183C5.93623 10.7118 5.93299 10.7043 5.9303 10.6978C5.65869 10.0348 5.63168 9.47178 5.70081 9.04248C5.73477 8.83167 5.79106 8.66117 5.84436 8.53467C5.87094 8.4716 5.89713 8.41951 5.91956 8.37842C5.93078 8.35785 5.9407 8.33976 5.94983 8.32471C5.95438 8.3172 5.95862 8.31033 5.96252 8.3042L5.96838 8.29541L5.97034 8.2915L5.97229 8.28955V8.28857L5.97327 8.2876C6.11176 8.07994 6.3362 7.94501 6.58459 7.92041ZM11.7086 14.0288L11.7047 14.0317L11.7106 14.0278L11.7086 14.0288ZM9.28479 5.35791C10.0265 5.15923 10.8077 5.15917 11.5494 5.35791C12.291 5.55672 12.9675 5.94684 13.5104 6.48975C14.0533 7.03267 14.4434 7.70907 14.6422 8.45068C14.841 9.1924 14.8409 9.97361 14.6422 10.7153L13.4352 10.3921C13.5771 9.86236 13.5771 9.30464 13.4352 8.7749C13.2932 8.24507 13.0144 7.76141 12.6266 7.37354C12.2387 6.98565 11.7551 6.70692 11.2252 6.56494C10.6955 6.42303 10.1378 6.42303 9.60803 6.56494L9.28479 5.35791ZM9.40686 7.78662C9.79542 7.68251 10.2048 7.68251 10.5934 7.78662C10.9818 7.89076 11.3364 8.09502 11.6207 8.37939C11.9051 8.66379 12.1094 9.01827 12.2135 9.40674C12.3176 9.7953 12.3176 10.2047 12.2135 10.5933L11.0065 10.27C11.0538 10.0934 11.0538 9.9066 11.0065 9.72998C10.9591 9.55352 10.8661 9.39238 10.7369 9.26318C10.6076 9.13389 10.4458 9.04098 10.2692 8.99365C10.0927 8.94645 9.90658 8.94637 9.7301 8.99365L9.40686 7.78662Z" fill="#7B7F8E"/>
</svg>
