<svg width="20" height="20" viewBox="0 0 20 20" fill="none" xmlns="http://www.w3.org/2000/svg">
<path d="M4.72681 2.43203C5.49351 1.66533 6.77735 1.82356 7.33521 2.75332L8.95142 5.44668C9.34484 6.10246 9.24118 6.94205 8.70044 7.48282L7.84497 8.33828C8.0198 8.69668 8.45843 9.38826 9.53735 10.4672C10.6161 11.546 11.3078 11.9847 11.6663 12.1596L12.5217 11.3041C13.0625 10.7633 13.9021 10.6606 14.5579 11.0541L17.2512 12.6693C18.181 13.2272 18.3392 14.511 17.5725 15.2777L15.4817 17.3676C15.018 17.8313 14.3483 18.1308 13.6145 18.0395C12.1586 17.8581 8.87034 17.1256 5.85278 14.1625C2.80678 11.1715 2.11011 7.82257 1.95142 6.36172C1.87303 5.63991 2.17267 4.98715 2.62622 4.5336L4.72681 2.43203ZM3.80396 5.71231C3.64569 5.87069 3.59369 6.0424 3.60864 6.18106C3.74228 7.41172 4.34192 10.3425 7.02075 12.9731C9.69321 15.5972 12.5898 16.2328 13.8206 16.3861C13.9639 16.404 14.1417 16.3509 14.303 16.1898L16.3938 14.099L13.7004 12.4828L12.718 13.4643C12.4354 13.7469 11.92 14.027 11.3235 13.8207C10.7454 13.6206 9.79325 13.0805 8.35864 11.6459C6.92408 10.2113 6.38494 9.2591 6.18481 8.68106C5.9784 8.08452 6.25766 7.56915 6.54028 7.28653L7.52173 6.3041L5.90552 3.61075L3.80396 5.71231Z" fill="#2B384C"/>
</svg>
