<svg width="37" height="37" viewBox="0 0 37 37" fill="none" xmlns="http://www.w3.org/2000/svg">
<path fill-rule="evenodd" clip-rule="evenodd" d="M11.1771 6.93758C7.9937 6.93758 5.39583 9.53796 5.39583 12.767C5.39583 14.8179 6.59912 16.933 8.49772 19.1301C11.5911 22.7097 15.173 26.4504 18.5 29.5209C21.827 26.4504 25.4089 22.7097 28.5023 19.1301C30.4009 16.933 31.6042 14.8179 31.6042 12.767C31.6042 9.53796 29.0063 6.93758 25.8229 6.93758C24.4474 6.93758 23.1869 7.42004 22.1934 8.22926C21.1451 9.08314 20.5942 9.69658 20.288 10.0725C20.209 10.1695 20.1423 10.2556 20.0814 10.3353C20.0707 10.3492 20.0593 10.3642 20.0473 10.3799C19.9995 10.4426 19.943 10.5168 19.8944 10.5773C19.8421 10.6425 19.7236 10.789 19.5637 10.9226C19.4025 11.0571 19.0174 11.3329 18.4526 11.3218C17.8946 11.3108 17.5239 11.0261 17.3741 10.8947C17.2221 10.7613 17.1088 10.6165 17.0585 10.5518C16.9785 10.4488 16.9359 10.3905 16.8956 10.3355C16.8439 10.2647 16.7961 10.1994 16.6779 10.0516C16.3801 9.67931 15.8408 9.07161 14.8066 8.22926C13.8131 7.42004 12.5525 6.93758 11.1771 6.93758ZM2.3125 12.767C2.3125 7.85417 6.27179 3.85425 11.1771 3.85425C13.2894 3.85425 15.2319 4.599 16.7538 5.83861C17.5187 6.46163 18.0779 6.99718 18.4956 7.44457C18.9161 6.99933 19.4783 6.46406 20.2462 5.83861C21.7681 4.599 23.7106 3.85425 25.8229 3.85425C30.7282 3.85425 34.6875 7.85417 34.6875 12.767C34.6875 15.979 32.8437 18.822 30.8352 21.1461C27.5097 24.9943 23.6255 29.0329 20.0486 32.2836C19.17 33.0821 17.83 33.0821 16.9514 32.2836C13.3745 29.0329 9.49027 24.9943 6.16479 21.1461C4.15633 18.822 2.3125 15.979 2.3125 12.767Z" fill="white"/>
</svg>
