<svg width="37" height="37" viewBox="0 0 37 37" fill="none" xmlns="http://www.w3.org/2000/svg">
<path d="M20.8125 13.1041C20.8125 14.3812 19.7771 15.4166 18.5 15.4166C17.2228 15.4166 16.1875 14.3812 16.1875 13.1041C16.1875 11.8269 17.2228 10.7916 18.5 10.7916C19.7771 10.7916 20.8125 11.8269 20.8125 13.1041Z" fill="#1C9BE9"/>
<path d="M14.6458 26.2083V23.1249H16.9583V20.0416H15.4166V16.9583H18.5C19.3514 16.9583 20.0416 17.6485 20.0416 18.4999V23.1249H22.3541V26.2083H14.6458Z" fill="#1C9BE9"/>
<path fill-rule="evenodd" clip-rule="evenodd" d="M18.5 33.9166C9.98559 33.9166 3.08331 27.0143 3.08331 18.4999C3.08331 9.98553 9.98559 3.08325 18.5 3.08325C27.0144 3.08325 33.9166 9.98553 33.9166 18.4999C33.9166 27.0143 27.0144 33.9166 18.5 33.9166ZM18.5 30.8333C25.3115 30.8333 30.8333 25.3114 30.8333 18.4999C30.8333 11.6884 25.3115 6.16659 18.5 6.16659C11.6885 6.16659 6.16665 11.6884 6.16665 18.4999C6.16665 25.3114 11.6885 30.8333 18.5 30.8333Z" fill="#1C9BE9"/>
</svg>
