<svg width="20" height="20" viewBox="0 0 20 20" fill="none" xmlns="http://www.w3.org/2000/svg">
<path d="M10.8334 10.0005V15.4165L11.9164 14.3335L13.0951 15.5122L10.5951 18.0122C10.2696 18.3374 9.74174 18.3376 9.41638 18.0122L6.91638 15.5122L8.09509 14.3335L9.16638 15.4048V10.0005H10.8334ZM10.0004 1.6665C12.3524 1.66663 14.4362 3.07174 15.35 5.17041C17.0919 5.68454 18.3333 7.29537 18.3334 9.1665C18.3334 11.4677 16.4676 13.3335 14.1664 13.3335H12.5004V11.6665H14.1664C15.5471 11.6665 16.6664 10.5472 16.6664 9.1665C16.6663 7.94412 15.7827 6.90625 14.5922 6.70264C14.2914 6.65125 14.0425 6.43954 13.9437 6.15088C13.3721 4.47958 11.7956 3.33363 10.0004 3.3335C7.69918 3.3335 5.83337 5.1993 5.83337 7.50049C5.83313 7.96041 5.4603 8.33332 5.00037 8.3335C4.07989 8.3335 3.33337 9.08001 3.33337 10.0005C3.33362 10.9208 4.08004 11.6665 5.00037 11.6665H7.50037V13.3335H5.00037C3.15957 13.3335 1.66662 11.8412 1.66638 10.0005C1.66638 8.4306 2.75204 7.11387 4.21326 6.76025C4.57685 3.88794 7.02935 1.6665 10.0004 1.6665Z" fill="#7B7F8E"/>
</svg>
