<svg width="20" height="20" viewBox="0 0 20 20" fill="none" xmlns="http://www.w3.org/2000/svg">
<path d="M12.2026 1.6665C13.1057 1.6665 13.8344 1.66714 14.4243 1.71533C15.0314 1.76496 15.5647 1.8693 16.0581 2.12061C16.8421 2.52008 17.4799 3.15789 17.8794 3.94189C18.1308 4.43543 18.236 4.96934 18.2856 5.57666C18.3338 6.1664 18.3335 6.89462 18.3335 7.79736V12.2026C18.3335 13.1056 18.3338 13.8345 18.2856 14.4243C18.236 15.0314 18.1308 15.5647 17.8794 16.0581C17.4799 16.8421 16.8421 17.4799 16.0581 17.8794C15.5647 18.1307 15.0314 18.236 14.4243 18.2856C13.8344 18.3338 13.1057 18.3335 12.2026 18.3335H7.79736C6.89466 18.3335 6.16637 18.3338 5.57666 18.2856C4.96932 18.236 4.43545 18.1309 3.94189 17.8794C3.15789 17.4799 2.52008 16.8421 2.12061 16.0581C1.8693 15.5647 1.76496 15.0314 1.71533 14.4243C1.66714 13.8345 1.6665 13.1057 1.6665 12.2026V7.79736C1.6665 6.89459 1.66718 6.16641 1.71533 5.57666C1.76495 4.96939 1.86921 4.4354 2.12061 3.94189C2.52008 3.15789 3.15789 2.52008 3.94189 2.12061C4.43544 1.86916 4.96933 1.76495 5.57666 1.71533C6.1664 1.66717 6.89458 1.6665 7.79736 1.6665H12.2026ZM7.8335 3.3335C6.88653 3.3335 6.22639 3.33449 5.7124 3.37646C5.20819 3.41766 4.91818 3.49417 4.69873 3.60596C4.22833 3.84564 3.84564 4.22833 3.60596 4.69873C3.49425 4.91809 3.41766 5.20764 3.37646 5.71143C3.33447 6.22546 3.3335 6.88632 3.3335 7.8335V12.1665C3.3335 13.1137 3.33447 13.7745 3.37646 14.2886C3.41766 14.7924 3.49426 15.0819 3.60596 15.3013C3.84564 15.7717 4.22833 16.1544 4.69873 16.394C4.91818 16.5058 5.20817 16.5833 5.7124 16.6245C6.22638 16.6665 6.88657 16.6665 7.8335 16.6665H12.1665C13.1137 16.6665 13.7745 16.6665 14.2886 16.6245C14.7927 16.5833 15.0828 16.5058 15.3022 16.394C15.7725 16.1543 16.1544 15.7715 16.394 15.3013C16.5058 15.0819 16.5833 14.7925 16.6245 14.2886C16.6665 13.7745 16.6665 13.1137 16.6665 12.1665V7.8335C16.6665 6.88632 16.6665 6.22546 16.6245 5.71143C16.5833 5.20751 16.5058 4.91811 16.394 4.69873C16.1544 4.22845 15.7725 3.84565 15.3022 3.60596C15.0828 3.49416 14.7927 3.41767 14.2886 3.37646C13.7745 3.33447 13.1137 3.3335 12.1665 3.3335H7.8335ZM10.0005 5.8335C12.3015 5.83367 14.1665 7.69941 14.1665 10.0005C14.1663 12.3014 12.3014 14.1663 10.0005 14.1665C7.69945 14.1665 5.83374 12.3015 5.8335 10.0005C5.8335 7.6993 7.6993 5.8335 10.0005 5.8335ZM10.0005 7.50049C8.61978 7.50049 7.50049 8.61978 7.50049 10.0005C7.50073 11.381 8.61993 12.5005 10.0005 12.5005C11.3809 12.5003 12.5002 11.3809 12.5005 10.0005C12.5005 8.61988 11.3811 7.50066 10.0005 7.50049ZM14.1665 5.00049C14.6267 5.00049 15.0005 5.37326 15.0005 5.8335C15.0004 6.29368 14.6267 6.6665 14.1665 6.6665C13.7065 6.66633 13.3336 6.29357 13.3335 5.8335C13.3335 5.37337 13.7064 5.00066 14.1665 5.00049Z" fill="#2B384C"/>
</svg>
