<svg width="68" height="68" viewBox="0 0 68 68" fill="none" xmlns="http://www.w3.org/2000/svg">
<circle cx="34" cy="34" r="34" fill="#1C9BE9"/>
<path d="M9.50216 25.585H23.2207L23.4845 30.8086H23.0096C22.271 29.0322 21.4971 27.8186 20.688 27.1679C19.879 26.4995 18.6918 26.1654 17.1265 26.1654H16.2031V34.3173H17.1001C17.9267 34.3173 18.6215 34.0095 19.1843 33.394C19.7471 32.7608 20.1428 31.9166 20.3715 30.8613H20.7672V38.6703H20.3187C20.0021 37.3512 19.5712 36.4103 19.026 35.8475C18.4984 35.2847 17.7685 35.0033 16.8363 35.0033H16.2031V43.4718H17.2056C18.8237 43.4718 20.1956 42.9882 21.3212 42.0208C22.4644 41.0535 23.2471 39.8135 23.6692 38.301H24.1968L23.9858 44.0522H9.50216V43.4718H11.0587V26.1654H9.50216V25.585Z" fill="white"/>
<path d="M36.6822 43.551L34.7564 37.8525H29.5328L27.5014 43.551H29.48V44.0522H25.4436V43.551H26.6835L33.4109 25.4267H35.5742L42.2224 43.551H43.436V44.0522H34.8091V43.551H36.6822ZM32.2501 30.3601L29.7702 37.2721H34.5453L32.2501 30.3601Z" fill="white"/>
<path d="M44.289 25.585H58.0076L58.2714 31.0724H57.7965C57.1458 29.1729 56.3895 27.8802 55.5277 27.1942C54.6835 26.5083 53.4171 26.1654 51.7287 26.1654H50.99V34.7394H52.1772C53.0214 34.7394 53.7249 34.4317 54.2878 33.8161C54.8506 33.2005 55.2375 32.3563 55.4486 31.2834H55.8443V39.0924H55.3958C55.1144 37.7734 54.7187 36.8324 54.2086 36.2696C53.7161 35.7068 53.039 35.4254 52.1772 35.4254H50.99V43.4718H54.2614V44.0522H44.289V43.4718H45.8456V26.1654H44.289V25.585Z" fill="white"/>
<mask id="mask0_19126_415" style="mask-type:alpha" maskUnits="userSpaceOnUse" x="0" y="0" width="68" height="68">
<circle cx="34" cy="34" r="34" fill="#1C9BE9"/>
</mask>
<g mask="url(#mask0_19126_415)">
<path d="M2.62949 51.5189C8.04855 50.3311 14.6553 50.183 22.1867 52.8542C29.7169 55.525 38.1628 61.0112 47.2666 71.0772L47.1569 71.1763L47.0472 71.2756C37.9684 61.2372 29.5621 55.784 22.088 53.1331C14.6151 50.4826 8.06521 50.6301 2.69301 51.8076L2.62949 51.5189Z" fill="white"/>
<path d="M4.43498 54.472C20.9009 54.472 33.9492 63.8164 41.065 73.0077L40.8311 73.1885C33.7556 64.0492 20.7864 54.7677 4.43498 54.7677V54.472Z" fill="white"/>
</g>
</svg>
